<svg xmlns="http://www.w3.org/2000/svg" width="25" height="24" viewBox="0 0 25 24">
    <g fill="#FFF" fill-rule="evenodd">
        <path d="M12 0c6.627 0 12 5.373 12 12s-5.373 12-12 12S0 18.627 0 12 5.373 0 12 0zm0 1.5C6.201 1.5 1.5 6.201 1.5 12S6.201 22.5 12 22.5 22.5 17.799 22.5 12 17.799 1.5 12 1.5zm0 5.25c.414 0 .75.336.75.75v3.75h3.75c.38 0 .693.282.743.648l.007.102c0 .414-.336.75-.75.75h-3.75v3.75c0 .38-.282.693-.648.743L12 17.25c-.414 0-.75-.336-.75-.75v-3.75H7.5c-.38 0-.693-.282-.743-.648L6.75 12c0-.414.336-.75.75-.75h3.75V7.5c0-.38.282-.693.648-.743z" transform="translate(.5)"/>
    </g>
</svg>
