<svg xmlns="http://www.w3.org/2000/svg" width="28" height="28" viewBox="0 0 28 28">
    <g fill="none" fill-rule="evenodd">
        <g fill="#DD3900" fill-rule="nonzero">
            <g>
                <g>
                    <g transform="translate(-868 -486) translate(854 472) translate(12 12) translate(2 2)">
                        <circle cx="14" cy="14" r="14" opacity=".16"/>
                        <g>
                            <path d="M1.722 10.643c.955 0 1.74.725 1.777 1.641.018.445-.151.877-.47 1.2-.317.323-.758.509-1.22.516h-.033C.82 13.997.037 13.271 0 12.355c-.017-.443.152-.874.47-1.196.317-.322.756-.508 1.218-.516h.033zM1.75 0c.644 0 1.166.501 1.166 1.12v6.714c0 .618-.522 1.119-1.166 1.119-.644 0-1.166-.501-1.166-1.12V1.12C.584.501 1.106 0 1.75 0z" transform="translate(12.25 7)"/>
                        </g>
                    </g>
                </g>
            </g>
        </g>
    </g>
</svg>
