<svg xmlns="http://www.w3.org/2000/svg" width="28" height="28" viewBox="0 0 28 28">
    <g fill="none" fill-rule="evenodd">
        <g fill="#1DA1F2" fill-rule="nonzero">
            <g>
                <g>
                    <g transform="translate(-868 -806) translate(854 792) translate(12 12) translate(2 2)">
                        <circle cx="14" cy="14" r="14" opacity=".16"/>
                        <g>
                            <path d="M2.807 0C3.653 0 4.34.696 4.34 1.556c0 .859-.686 1.555-1.532 1.555-.845 0-1.531-.696-1.531-1.555C1.276.696 1.962 0 2.807 0zm2.297 14H1.021C.457 14 0 13.536 0 12.963s.457-1.037 1.02-1.037h.766c.141 0 .256-.116.256-.26V7c0-.143-.115-.26-.256-.26h-.765C.457 6.74 0 6.277 0 5.705c0-.573.457-1.037 1.02-1.037h1.022c1.127 0 2.041.928 2.041 2.074v4.926c0 .143.115.259.256.259h.765c.564 0 1.021.464 1.021 1.037S5.668 14 5.105 14z" transform="translate(11.375 7)"/>
                        </g>
                    </g>
                </g>
            </g>
        </g>
    </g>
</svg>
