<svg xmlns="http://www.w3.org/2000/svg" width="28" height="28" viewBox="0 0 28 28">
    <g fill="none" fill-rule="evenodd">
        <g fill-rule="nonzero">
            <g>
                <g>
                    <g transform="translate(-868 -1447) translate(854 1433) translate(12 12) translate(2 2)">
                        <circle cx="14" cy="14" r="14" fill="#F5A83F" opacity=".16"/>
                        <path fill="#F28B00" d="M20.486 18.335L15.034 7.686c-.202-.393-.6-.64-1.034-.64-.434 0-.832.247-1.033.64l-5.453 10.65c-.19.37-.176.813.035 1.17.212.358.59.576.999.576h10.904c.409 0 .787-.218.999-.575.211-.358.225-.802.035-1.172zm-7.07-6.907c0-.329.262-.596.584-.596.322 0 .583.267.583.596v3.58c0 .33-.26.597-.583.597-.322 0-.583-.267-.583-.597v-3.58zm.613 6.867h-.016c-.478-.001-.87-.388-.888-.877-.008-.236.076-.466.235-.637.159-.172.379-.271.61-.276h.016c.478.001.87.387.889.876.01.236-.075.467-.235.64-.159.171-.38.27-.61.274z"/>
                    </g>
                </g>
            </g>
        </g>
    </g>
</svg>
