<svg xmlns="http://www.w3.org/2000/svg" width="28" height="28" viewBox="0 0 28 28">
    <g fill="none" fill-rule="evenodd">
        <g fill="#5AD363" fill-rule="nonzero">
            <g>
                <g>
                    <g transform="translate(-868 -1126) translate(854 1112) translate(12 12) translate(2 2)">
                        <circle cx="14" cy="14" r="14" opacity=".16"/>
                        <path d="M14.725 18.38c-.394.504-.987.82-1.631.864-.644.046-1.278-.183-1.74-.627l-3.093-3.04c-.329-.313-.46-.777-.345-1.212.116-.436.462-.777.904-.89.443-.115.913.015 1.23.34l2.85 2.806 4.947-6.497c.271-.357.715-.543 1.164-.49.449.053.835.338 1.012.748.178.41.12.881-.151 1.238l-5.147 6.76z"/>
                    </g>
                </g>
            </g>
        </g>
    </g>
</svg>
