<svg xmlns="http://www.w3.org/2000/svg" width="40" height="40" viewBox="0 0 40 40">
    <g fill="none" fill-rule="evenodd">
        <circle cx="20" cy="20" r="20" fill="#F5F5F5" fill-rule="nonzero"/>
        <g>
            <path fill="#484848" d="M4.22 4.219c.293-.293.767-.293 1.06 0L12 10.938l6.72-6.72c.266-.266.683-.29.976-.072l.084.073c.293.293.293.767 0 1.06L13.061 12l6.72 6.72c.266.266.29.683.072.976l-.073.084c-.293.293-.767.293-1.06 0L12 13.06l-6.72 6.72c-.266.266-.683.29-.976.072l-.084-.073c-.293-.293-.293-.767 0-1.06l6.719-6.72-6.72-6.72c-.266-.266-.29-.683-.072-.976z" transform="translate(8 8)"/>
        </g>
    </g>
</svg>
