<svg xmlns="http://www.w3.org/2000/svg" width="16" height="16" viewBox="0 0 16 16">
    <path fill="#919191" fill-rule="evenodd" d="M13.659 2.343c-3.124-3.12-8.185-3.119-11.307.004-3.121 3.122-3.121 8.184 0 11.306 3.122 3.123 8.183 3.124 11.307.004 3.118-3.127 3.118-8.187 0-11.314zm-2.52 7.843c.237.263.226.665-.023.916-.25.25-.652.263-.916.027L8.127 9.056c-.066-.065-.17-.065-.236 0l-2.073 2.073c-.263.254-.68.254-.943 0-.126-.125-.196-.294-.196-.471s.07-.347.196-.472l2.073-2.073c.031-.03.049-.073.049-.117 0-.045-.018-.087-.049-.118L4.875 5.805c-.24-.263-.23-.668.02-.92.252-.251.656-.262.92-.024l2.072 2.074c.032.031.074.049.118.049.045 0 .087-.018.118-.05l2.074-2.073c.26-.26.682-.26.943 0 .26.261.26.683 0 .944L9.065 7.878c-.065.065-.065.17 0 .235l2.073 2.073z"/>
</svg>
