<svg xmlns="http://www.w3.org/2000/svg" width="16" height="16" viewBox="0 0 16 16">
    <g fill="none" fill-rule="evenodd">
        <g>
            <g>
                <g>
                    <g>
                        <g fill="#9B9B9B">
                            <path d="M6.027 4.895c-.025-.025-.04-.06-.04-.095s.015-.07.04-.094l3.34-3.34c.312-.313.312-.82 0-1.132-.314-.312-.82-.312-1.133 0l-3.34 3.338c-.025.026-.058.04-.094.04-.035 0-.07-.014-.094-.04L1.366.235C1.054-.078.547-.078.234.235c-.312.312-.312.819 0 1.131l3.34 3.34c.024.025.039.059.039.094 0 .036-.015.07-.04.095L.234 8.235c-.202.202-.28.497-.207.773.074.276.29.491.566.565.276.074.57-.005.773-.207l3.34-3.34c.025-.025.059-.04.094-.04.036 0 .07.015.094.04l3.34 3.34c.313.313.82.313 1.132 0 .312-.312.312-.819 0-1.131l-3.34-3.34z" transform="translate(-478 -978) translate(188 958) translate(290 20) translate(.8 .8) translate(2.4 2.4)"/>
                        </g>
                    </g>
                </g>
            </g>
        </g>
    </g>
</svg>
