<svg xmlns="http://www.w3.org/2000/svg" width="24" height="24" viewBox="0 0 24 24">
    <g fill="none" fill-rule="evenodd">
        <g>
            <g>
                <g>
                    <g fill="#6C84FA">
                        <path d="M12 0C5.373 0 0 5.373 0 12s5.373 12 12 12 12-5.373 12-12C23.993 5.376 18.624.007 12 0zm.25 5c.828 0 1.5.672 1.5 1.5S13.078 8 12.25 8s-1.5-.672-1.5-1.5.672-1.5 1.5-1.5zm2.25 13.5h-4c-.552 0-1-.448-1-1s.448-1 1-1h.75c.138 0 .25-.112.25-.25v-4.5c0-.138-.112-.25-.25-.25h-.75c-.552 0-1-.448-1-1s.448-1 1-1h1c1.105 0 2 .895 2 2v4.75c0 .138.112.25.25.25h.75c.552 0 1 .448 1 1s-.448 1-1 1z" transform="translate(-212 -653) translate(188 637) translate(24 16)"/>
                    </g>
                </g>
            </g>
        </g>
    </g>
</svg>
