<svg xmlns="http://www.w3.org/2000/svg" width="24" height="24" viewBox="0 0 24 24">
    <g fill="none" fill-rule="evenodd">
        <path fill="#F90000" d="M23 10.586L13.414 1c-.781-.781-2.047-.781-2.828 0L1 10.587c-.781.781-.781 2.047 0 2.828L10.586 23c.781.781 2.047.781 2.828 0L23 13.415c.781-.781.781-2.047 0-2.829zM11.068 6.417c0-.552.448-1 1-1s1 .448 1 1v6c0 .552-.448 1-1 1s-1-.448-1-1v-6zm1.051 11.51h-.028c-.819-.003-1.49-.651-1.522-1.47-.031-.814.605-1.499 1.419-1.529l.029-.001h.028c.82.002 1.491.651 1.522 1.47.031.814-.605 1.499-1.419 1.529l-.029.001z"/>
    </g>
</svg>
