<svg xmlns="http://www.w3.org/2000/svg" width="16" height="16" viewBox="0 0 16 16">
    <g fill="none" fill-rule="evenodd">
        <path fill="#7B7B7B" d="M8 0c4.418 0 8 3.582 8 8s-3.582 8-8 8-8-3.582-8-8 3.582-8 8-8zm0 1C4.134 1 1 4.134 1 8s3.134 7 7 7 7-3.134 7-7-3.134-7-7-7zm-.5 5.5c.552 0 1 .448 1 1V10c0 .276.224.5.5.5h.5c.276 0 .5.224.5.5s-.224.5-.5.5H9c-.828 0-1.5-.672-1.5-1.5V7.5H7c-.276 0-.5-.224-.5-.5s.224-.5.5-.5zM7.75 4l.082.004c.375.041.668.36.668.746 0 .414-.336.75-.75.75S7 5.164 7 4.75 7.336 4 7.75 4z"/>
    </g>
</svg>
