<svg xmlns="http://www.w3.org/2000/svg" xmlns:xlink="http://www.w3.org/1999/xlink" width="22" height="22" viewBox="0 0 22 22">
    <defs>
        <path id="prefix__a" d="M0 0H20.571V20.571H0z"/>
    </defs>
    <g fill="none" fill-rule="evenodd" transform="translate(.714 .714)">
        <mask id="prefix__b" fill="#fff">
            <use xlink:href="#prefix__a"/>
        </mask>
        <g mask="url(#prefix__b)">
            <path fill="#919191" d="M10.286 0c2.84 0 5.143 2.303 5.143 5.143v2.571h.642c1.066 0 1.929.864 1.929 1.929v9c0 1.065-.863 1.928-1.929 1.928H4.5c-1.065 0-1.929-.863-1.929-1.928v-9c0-1.065.864-1.929 1.929-1.929h.642V5.143c0-2.768 2.187-5.025 4.926-5.138zm5.785 9H4.5c-.355 0-.643.288-.643.643v9c0 .355.288.643.643.643h11.571c.355 0 .643-.288.643-.643v-9c0-.355-.288-.643-.643-.643zm-8.679 5.786l.113.006c.48.056.852.463.852.958 0 .533-.432.964-.964.964-.533 0-.964-.431-.964-.964 0-.532.431-.964.963-.964zm2.894 0l.112.006c.48.056.852.463.852.958 0 .533-.432.964-.964.964-.533 0-.965-.431-.965-.964 0-.532.432-.964.964-.964zm2.893 0c.532 0 .964.431.964.964 0 .533-.432.964-.964.964-.533 0-.965-.431-.965-.964 0-.532.432-.964.964-.964zM7.392 11.57l.113.007c.48.056.852.463.852.958 0 .532-.432.964-.964.964-.533 0-.964-.432-.964-.964 0-.533.431-.964.963-.965zm2.894 0l.112.007c.48.056.852.463.852.958 0 .532-.432.964-.964.964-.533 0-.965-.432-.965-.964 0-.533.432-.964.964-.965zm2.893 0c.532 0 .964.432.964.965 0 .532-.432.964-.964.964-.533 0-.965-.432-.965-.964 0-.533.432-.964.964-.965zM10.286 1.286c-2.13 0-3.857 1.727-3.857 3.857v2.571h7.713V5.143c0-2.064-1.62-3.749-3.658-3.852z"/>
        </g>
    </g>
</svg>
