<svg xmlns="http://www.w3.org/2000/svg" width="16" height="16" viewBox="0 0 16 16">
    <g fill="none" fill-rule="evenodd">
        <path fill="#6C84FA" d="M9.49 14c.086 0 .157.064.166.148.007.062.01.123.01.185C9.667 15.253 8.92 16 8 16c-.92 0-1.667-.746-1.667-1.667 0-.062.004-.123.011-.185.01-.084.08-.148.165-.148zM8 0c.552 0 1 .448 1 1v.757c.554.1 1.083.307 1.556.612 1.65 1.161 2.615 3.065 2.577 5.082v.512c.003 1.697.401 3.371 1.164 4.888.052.102.047.225-.013.324-.061.098-.168.158-.284.158H2c-.115 0-.223-.06-.283-.158-.06-.098-.066-.221-.014-.324.763-1.517 1.161-3.19 1.164-4.888V7.45c-.03-1.867.791-3.646 2.232-4.834.558-.428 1.21-.72 1.901-.851V1c0-.552.448-1 1-1z"/>
    </g>
</svg>
