<svg xmlns="http://www.w3.org/2000/svg" width="20" height="20" viewBox="0 0 20 20">
    <g fill="none" fill-rule="evenodd">
        <path fill="#9B9B9B" d="M5.377 1.382c3.837-1.63 8.268.158 9.9 3.994 1.152 2.712.596 5.723-1.185 7.83l4.944 4.946c.244.244.244.64 0 .884-.222.222-.57.242-.814.06l-.07-.06-4.945-4.945c-.564.478-1.209.88-1.925 1.184-3.836 1.631-8.269-.158-9.9-3.994-1.63-3.836.159-8.268 3.995-9.9zm7.405 11.4c1.764-1.765 2.378-4.485 1.344-6.917l-.086-.194C12.614 2.604 9.002 1.2 5.866 2.532c-3.201 1.36-4.694 5.06-3.333 8.26 1.36 3.201 5.06 4.694 8.26 3.333.727-.31 1.367-.74 1.904-1.257l.085-.086z"/>
    </g>
</svg>
