<svg xmlns="http://www.w3.org/2000/svg" width="24" height="24" viewBox="0 0 24 24">
    <g fill="none" fill-rule="evenodd">
        <g>
            <g>
                <g>
                    <g fill="#5AD363">
                        <path d="M12 0C5.373 0 0 5.373 0 12s5.373 12 12 12 12-5.373 12-12C23.992 5.376 18.624.008 12 0zm6.927 8.2l-6.845 9.289c-.336.446-.97.535-1.416.199l-.014-.011-4.888-3.908c-.431-.345-.501-.975-.156-1.406.345-.431.975-.501 1.406-.156l4.076 3.261 6.227-8.451c.306-.46.927-.584 1.387-.278.46.306.584.927.278 1.387-.018.026-.036.05-.055.074z" transform="translate(-212 -974) translate(188 958) translate(24 16)"/>
                    </g>
                </g>
            </g>
        </g>
    </g>
</svg>
