<svg xmlns="http://www.w3.org/2000/svg" width="21" height="21" viewBox="0 0 21 21">
    <g fill="none" fill-rule="evenodd">
        <g transform="translate(0 3.063)">
            <rect width="21" height="14.875" fill="#E92434" rx="2"/>
            <path fill="#FFF" d="M9.5 3c1.443 0 2.728.68 3.551 1.736C12.416 4.275 11.617 4 10.75 4 8.679 4 7 5.567 7 7.5S8.679 11 10.75 11c.867 0 1.666-.275 2.3-.736C12.229 11.321 10.944 12 9.5 12 7.015 12 5 9.985 5 7.5S7.015 3 9.5 3zm4.514 2.33l.459 1.368 1.443.013-1.16.86.434 1.376-1.176-.838-1.175.838.434-1.377-1.16-.859 1.443-.013.458-1.369z"/>
        </g>
    </g>
</svg>
