<svg xmlns="http://www.w3.org/2000/svg" width="24" height="24" viewBox="0 0 24 24">
    <g fill="none" fill-rule="evenodd">
        <g>
            <g>
                <g>
                    <g fill="#F5CF3F">
                        <path d="M23.759 18.918L13.874.128c-.542-1.029-1.82-1.427-2.855-.887-.38.199-.691.508-.891.887L.242 18.918C-.3 19.948.1 21.22 1.135 21.76c.302.158.64.24.981.24h19.769C23.054 22 24 21.058 24 19.895c0-.34-.082-.676-.241-.977zM10.943 6.732c0-.581.474-1.053 1.058-1.053.583 0 1.057.472 1.057 1.053v6.315c0 .581-.474 1.053-1.057 1.053-.584 0-1.058-.472-1.058-1.053V6.732zm1.11 12.115h-.03c-.865-.003-1.576-.685-1.609-1.547-.031-.858.641-1.578 1.503-1.61h.059c.865 0 1.577.682 1.61 1.544.035.857-.636 1.579-1.497 1.612l-.036.001z" transform="translate(-211 -1295) translate(188 1279) translate(23 16) translate(0 1)"/>
                    </g>
                </g>
            </g>
        </g>
    </g>
</svg>
